<svg xmlns="http://www.w3.org/2000/svg" xmlns:xlink="http://www.w3.org/1999/xlink" width="500" zoomAndPan="magnify" viewBox="0 0 375 374.999991" height="500" preserveAspectRatio="xMidYMid meet" version="1.0"><defs><g/><clipPath id="id1"><path d="M 191 147 L 262.5 147 L 262.5 198.566406 L 191 198.566406 Z M 191 147 " clip-rule="nonzero"/></clipPath><clipPath id="id2"><path d="M 112.5 147 L 184 147 L 184 198.566406 L 112.5 198.566406 Z M 112.5 147 " clip-rule="nonzero"/></clipPath><clipPath id="id3"><path d="M 185 140 L 188 140 L 188 198.566406 L 185 198.566406 Z M 185 140 " clip-rule="nonzero"/></clipPath><clipPath id="id4"><path d="M 187 140 L 190 140 L 190 198.566406 L 187 198.566406 Z M 187 140 " clip-rule="nonzero"/></clipPath></defs><rect x="-37.5" width="450" fill="#ffffff" y="-37.499999" height="449.999989" fill-opacity="1"/><rect x="-37.5" width="450" fill="#221a60" y="-37.499999" height="449.999989" fill-opacity="1"/><rect x="-37.5" width="450" fill="#ffffff" y="-37.499999" height="449.999989" fill-opacity="1"/><rect x="-37.5" width="450" fill="#221a60" y="-37.499999" height="449.999989" fill-opacity="1"/><g clip-path="url(#id1)"><path fill="#ffffff" d="M 247.675781 147.9375 C 243.722656 154.371094 231.734375 174.078125 224.03125 188.871094 L 223.46875 189.949219 C 223.46875 189.949219 199.230469 190.171875 191.902344 194.816406 L 191.902344 198.558594 C 199.714844 193.90625 228.226562 194.222656 228.226562 194.222656 C 241.132812 176.117188 262.488281 151.035156 262.488281 151.035156 C 257.449219 149.367188 252.46875 148.398438 247.675781 147.9375 " fill-opacity="1" fill-rule="nonzero"/></g><path fill="#ffffff" d="M 242.179688 142.878906 C 237.664062 151.554688 228.574219 169.285156 222.472656 183.007812 L 221.9375 184.214844 C 221.9375 184.214844 196.292969 183.25 191.902344 189.472656 L 191.902344 192.3125 C 203.648438 186.773438 222.3125 187.976562 222.3125 187.976562 C 231.742188 169.867188 247.339844 144.789062 247.339844 144.789062 C 245.609375 144.003906 243.882812 143.375 242.179688 142.878906 " fill-opacity="1" fill-rule="nonzero"/><path fill="#ffffff" d="M 191.902344 140.953125 L 191.902344 186.773438 C 197.039062 181.867188 220.703125 182.203125 220.703125 182.203125 C 229.1875 163.125 243.222656 136.703125 243.222656 136.703125 C 224.132812 126.5625 191.902344 140.953125 191.902344 140.953125 " fill-opacity="1" fill-rule="nonzero"/><g clip-path="url(#id2)"><path fill="#ffffff" d="M 127.324219 147.9375 C 131.277344 154.371094 143.265625 174.078125 150.96875 188.871094 L 151.53125 189.949219 C 151.53125 189.949219 175.769531 190.171875 183.097656 194.816406 L 183.097656 198.558594 C 175.285156 193.90625 146.773438 194.222656 146.773438 194.222656 C 133.867188 176.117188 112.511719 151.035156 112.511719 151.035156 C 117.550781 149.367188 122.53125 148.398438 127.324219 147.9375 " fill-opacity="1" fill-rule="nonzero"/></g><path fill="#ffffff" d="M 132.820312 142.878906 C 137.335938 151.554688 146.425781 169.285156 152.527344 183.007812 L 153.0625 184.214844 C 153.0625 184.214844 178.707031 183.25 183.097656 189.472656 L 183.097656 192.3125 C 171.351562 186.773438 152.6875 187.976562 152.6875 187.976562 C 143.257812 169.867188 127.660156 144.789062 127.660156 144.789062 C 129.394531 144.003906 131.117188 143.375 132.820312 142.878906 " fill-opacity="1" fill-rule="nonzero"/><path fill="#ffffff" d="M 183.097656 140.953125 L 183.097656 186.773438 C 177.960938 181.867188 154.296875 182.203125 154.296875 182.203125 C 145.8125 163.125 131.777344 136.703125 131.777344 136.703125 C 150.867188 126.5625 183.097656 140.953125 183.097656 140.953125 " fill-opacity="1" fill-rule="nonzero"/><g clip-path="url(#id3)"><path fill="#ffffff" d="M 187.5 140.953125 C 186.191406 140.953125 185.128906 142.011719 185.128906 143.320312 L 185.128906 196.191406 C 185.128906 197.5 186.191406 198.558594 187.5 198.558594 L 187.5 140.953125 " fill-opacity="1" fill-rule="nonzero"/></g><g clip-path="url(#id4)"><path fill="#ffffff" d="M 187.5 140.953125 L 187.5 198.558594 C 188.808594 198.558594 189.871094 197.5 189.871094 196.191406 L 189.871094 143.320312 C 189.871094 142.011719 188.808594 140.953125 187.5 140.953125 " fill-opacity="1" fill-rule="nonzero"/></g><g fill="#ffd404" fill-opacity="1"><g transform="translate(107.60156, 226.440103)"><g><path d="M 10.53125 -8.203125 L 10.53125 -6.296875 C 10.53125 -5.816406 10.53125 -5.375 10.53125 -4.96875 C 10.53125 -4.570312 10.53125 -4.191406 10.53125 -3.828125 C 10.53125 -3.472656 10.535156 -3.125 10.546875 -2.78125 C 10.554688 -2.4375 10.5625 -2.070312 10.5625 -1.6875 L 13.125 -1.40625 L 13.125 0 L 3.84375 0 L 3.84375 -1.40625 L 6.40625 -1.6875 C 6.425781 -2.425781 6.4375 -3.128906 6.4375 -3.796875 C 6.4375 -4.472656 6.4375 -5.304688 6.4375 -6.296875 L 6.4375 -7.890625 L 1.875 -16.75 L 0.0625 -16.9375 L 0.0625 -18.34375 L 8.65625 -18.34375 L 8.65625 -16.9375 L 6.4375 -16.6875 L 9.6875 -9.46875 L 13.21875 -16.625 L 10.96875 -16.9375 L 10.96875 -18.34375 L 16.90625 -18.34375 L 16.90625 -16.9375 L 14.84375 -16.578125 Z M 10.53125 -8.203125 "/></g></g></g><g fill="#ffd404" fill-opacity="1"><g transform="translate(124.567242, 226.440103)"><g><path d="M 5.1875 -9.15625 C 5.1875 -8.144531 5.269531 -7.160156 5.4375 -6.203125 C 5.601562 -5.242188 5.875 -4.382812 6.25 -3.625 C 6.632812 -2.863281 7.125 -2.253906 7.71875 -1.796875 C 8.320312 -1.347656 9.050781 -1.125 9.90625 -1.125 C 10.769531 -1.125 11.5 -1.347656 12.09375 -1.796875 C 12.6875 -2.253906 13.171875 -2.863281 13.546875 -3.625 C 13.921875 -4.382812 14.195312 -5.242188 14.375 -6.203125 C 14.550781 -7.160156 14.640625 -8.144531 14.640625 -9.15625 C 14.640625 -10.164062 14.550781 -11.15625 14.375 -12.125 C 14.195312 -13.09375 13.921875 -13.953125 13.546875 -14.703125 C 13.171875 -15.460938 12.6875 -16.070312 12.09375 -16.53125 C 11.5 -16.988281 10.769531 -17.21875 9.90625 -17.21875 C 9.050781 -17.21875 8.320312 -16.988281 7.71875 -16.53125 C 7.125 -16.070312 6.632812 -15.460938 6.25 -14.703125 C 5.875 -13.953125 5.601562 -13.09375 5.4375 -12.125 C 5.269531 -11.15625 5.1875 -10.164062 5.1875 -9.15625 Z M 9.90625 -18.765625 C 11.007812 -18.765625 12.097656 -18.5625 13.171875 -18.15625 C 14.242188 -17.757812 15.207031 -17.160156 16.0625 -16.359375 C 16.925781 -15.566406 17.617188 -14.566406 18.140625 -13.359375 C 18.660156 -12.160156 18.921875 -10.757812 18.921875 -9.15625 C 18.921875 -7.550781 18.660156 -6.148438 18.140625 -4.953125 C 17.617188 -3.753906 16.929688 -2.757812 16.078125 -1.96875 C 15.234375 -1.175781 14.269531 -0.578125 13.1875 -0.171875 C 12.101562 0.222656 11.007812 0.421875 9.90625 0.421875 C 8.8125 0.421875 7.722656 0.222656 6.640625 -0.171875 C 5.554688 -0.578125 4.585938 -1.175781 3.734375 -1.96875 C 2.890625 -2.757812 2.203125 -3.753906 1.671875 -4.953125 C 1.148438 -6.148438 0.890625 -7.550781 0.890625 -9.15625 C 0.890625 -10.757812 1.148438 -12.160156 1.671875 -13.359375 C 2.203125 -14.566406 2.894531 -15.566406 3.75 -16.359375 C 4.613281 -17.160156 5.582031 -17.757812 6.65625 -18.15625 C 7.726562 -18.5625 8.8125 -18.765625 9.90625 -18.765625 Z M 9.90625 -18.765625 "/></g></g></g><g fill="#ffd404" fill-opacity="1"><g transform="translate(144.388534, 226.440103)"><g><path d="M 20.4375 -16.9375 L 17.953125 -16.6875 L 17.953125 -7.921875 C 17.953125 -6.367188 17.765625 -5.0625 17.390625 -4 C 17.015625 -2.9375 16.5 -2.078125 15.84375 -1.421875 C 15.195312 -0.773438 14.421875 -0.304688 13.515625 -0.015625 C 12.609375 0.273438 11.625 0.421875 10.5625 0.421875 C 9.476562 0.421875 8.484375 0.273438 7.578125 -0.015625 C 6.671875 -0.304688 5.894531 -0.75 5.25 -1.34375 C 4.601562 -1.9375 4.101562 -2.703125 3.75 -3.640625 C 3.394531 -4.585938 3.21875 -5.726562 3.21875 -7.0625 L 3.21875 -9.859375 C 3.21875 -10.992188 3.21875 -12.128906 3.21875 -13.265625 C 3.21875 -14.410156 3.195312 -15.550781 3.15625 -16.6875 L 0.890625 -16.9375 L 0.890625 -18.34375 L 9.625 -18.34375 L 9.625 -16.9375 L 7.390625 -16.71875 C 7.359375 -15.582031 7.34375 -14.441406 7.34375 -13.296875 C 7.34375 -12.160156 7.34375 -11.015625 7.34375 -9.859375 L 7.34375 -7.921875 C 7.34375 -6.816406 7.4375 -5.878906 7.625 -5.109375 C 7.820312 -4.347656 8.113281 -3.734375 8.5 -3.265625 C 8.882812 -2.804688 9.347656 -2.472656 9.890625 -2.265625 C 10.441406 -2.054688 11.070312 -1.953125 11.78125 -1.953125 C 12.5 -1.953125 13.132812 -2.054688 13.6875 -2.265625 C 14.25 -2.472656 14.722656 -2.804688 15.109375 -3.265625 C 15.492188 -3.734375 15.78125 -4.347656 15.96875 -5.109375 C 16.164062 -5.878906 16.265625 -6.816406 16.265625 -7.921875 L 16.265625 -16.6875 L 13.828125 -16.9375 L 13.828125 -18.34375 L 20.4375 -18.34375 Z M 20.4375 -16.9375 "/></g></g></g><g fill="#ffd404" fill-opacity="1"><g transform="translate(165.385671, 226.440103)"><g><path d="M 8.484375 -9.765625 C 9.191406 -9.765625 9.789062 -9.863281 10.28125 -10.0625 C 10.78125 -10.257812 11.179688 -10.519531 11.484375 -10.84375 C 11.796875 -11.175781 12.019531 -11.566406 12.15625 -12.015625 C 12.300781 -12.460938 12.375 -12.9375 12.375 -13.4375 C 12.375 -14.5625 12.066406 -15.398438 11.453125 -15.953125 C 10.835938 -16.515625 9.847656 -16.796875 8.484375 -16.796875 L 7.3125 -16.796875 C 7.269531 -15.640625 7.25 -14.476562 7.25 -13.3125 C 7.25 -12.144531 7.25 -10.960938 7.25 -9.765625 Z M 18.59375 -1.40625 L 18.59375 0 C 18.03125 0.113281 17.535156 0.1875 17.109375 0.21875 C 16.679688 0.257812 16.269531 0.28125 15.875 0.28125 C 15.332031 0.28125 14.84375 0.242188 14.40625 0.171875 C 13.96875 0.109375 13.578125 -0.00390625 13.234375 -0.171875 C 12.898438 -0.335938 12.617188 -0.570312 12.390625 -0.875 C 12.171875 -1.1875 12.015625 -1.585938 11.921875 -2.078125 L 11.203125 -5.796875 C 11.015625 -6.710938 10.6875 -7.347656 10.21875 -7.703125 C 9.75 -8.054688 9.050781 -8.234375 8.125 -8.234375 L 7.25 -8.234375 C 7.25 -7.128906 7.25 -6.03125 7.25 -4.9375 C 7.25 -3.84375 7.269531 -2.75 7.3125 -1.65625 L 9.625 -1.40625 L 9.625 0 L 0.890625 0 L 0.890625 -1.40625 L 3.15625 -1.65625 C 3.195312 -2.8125 3.21875 -3.972656 3.21875 -5.140625 C 3.21875 -6.304688 3.21875 -7.488281 3.21875 -8.6875 L 3.21875 -9.65625 C 3.21875 -10.832031 3.21875 -12.003906 3.21875 -13.171875 C 3.21875 -14.335938 3.195312 -15.507812 3.15625 -16.6875 L 0.890625 -16.9375 L 0.890625 -18.34375 L 9.625 -18.34375 C 11.738281 -18.34375 13.378906 -17.929688 14.546875 -17.109375 C 15.710938 -16.285156 16.296875 -15.15625 16.296875 -13.71875 C 16.296875 -13.269531 16.222656 -12.804688 16.078125 -12.328125 C 15.941406 -11.859375 15.707031 -11.398438 15.375 -10.953125 C 15.050781 -10.515625 14.625 -10.125 14.09375 -9.78125 C 13.5625 -9.4375 12.90625 -9.160156 12.125 -8.953125 C 13.019531 -8.691406 13.753906 -8.257812 14.328125 -7.65625 C 14.910156 -7.050781 15.304688 -6.242188 15.515625 -5.234375 L 16.265625 -1.65625 Z M 18.59375 -1.40625 "/></g></g></g><g fill="#ffd404" fill-opacity="1"><g transform="translate(184.171112, 226.440103)"><g/></g></g><g fill="#ffd404" fill-opacity="1"><g transform="translate(190.330276, 226.440103)"><g><path d="M 8.203125 -1.546875 C 9.171875 -1.546875 9.972656 -1.628906 10.609375 -1.796875 C 11.242188 -1.960938 11.738281 -2.207031 12.09375 -2.53125 C 12.445312 -2.863281 12.691406 -3.253906 12.828125 -3.703125 C 12.972656 -4.160156 13.046875 -4.679688 13.046875 -5.265625 C 13.046875 -6.554688 12.695312 -7.484375 12 -8.046875 C 11.3125 -8.617188 10.117188 -8.90625 8.421875 -8.90625 L 7.3125 -8.90625 C 7.3125 -7.59375 7.3125 -6.328125 7.3125 -5.109375 C 7.3125 -3.898438 7.328125 -2.710938 7.359375 -1.546875 Z M 7.359375 -16.796875 C 7.328125 -15.734375 7.3125 -14.671875 7.3125 -13.609375 C 7.3125 -12.546875 7.3125 -11.472656 7.3125 -10.390625 L 8.34375 -10.390625 C 9.6875 -10.390625 10.664062 -10.664062 11.28125 -11.21875 C 11.894531 -11.769531 12.203125 -12.578125 12.203125 -13.640625 C 12.203125 -14.703125 11.925781 -15.492188 11.375 -16.015625 C 10.832031 -16.535156 9.953125 -16.796875 8.734375 -16.796875 Z M 9.6875 -18.34375 C 11.882812 -18.34375 13.5 -17.921875 14.53125 -17.078125 C 15.5625 -16.234375 16.078125 -15.125 16.078125 -13.75 C 16.078125 -13.300781 16.019531 -12.863281 15.90625 -12.4375 C 15.789062 -12.019531 15.597656 -11.632812 15.328125 -11.28125 C 15.054688 -10.925781 14.707031 -10.617188 14.28125 -10.359375 C 13.851562 -10.097656 13.332031 -9.882812 12.71875 -9.71875 C 13.53125 -9.5625 14.21875 -9.335938 14.78125 -9.046875 C 15.34375 -8.765625 15.796875 -8.425781 16.140625 -8.03125 C 16.484375 -7.644531 16.726562 -7.207031 16.875 -6.71875 C 17.03125 -6.226562 17.109375 -5.722656 17.109375 -5.203125 C 17.109375 -4.566406 16.988281 -3.941406 16.75 -3.328125 C 16.519531 -2.710938 16.082031 -2.15625 15.4375 -1.65625 C 14.789062 -1.164062 13.898438 -0.765625 12.765625 -0.453125 C 11.628906 -0.148438 10.15625 0 8.34375 0 L 0.890625 0 L 0.890625 -1.40625 L 3.15625 -1.65625 C 3.195312 -2.8125 3.21875 -3.972656 3.21875 -5.140625 C 3.21875 -6.304688 3.21875 -7.488281 3.21875 -8.6875 L 3.21875 -9.65625 C 3.21875 -10.832031 3.21875 -12.003906 3.21875 -13.171875 C 3.21875 -14.335938 3.195312 -15.507812 3.15625 -16.6875 L 0.890625 -16.9375 L 0.890625 -18.34375 Z M 9.6875 -18.34375 "/></g></g></g><g fill="#ffd404" fill-opacity="1"><g transform="translate(208.135851, 226.440103)"><g><path d="M 5.1875 -9.15625 C 5.1875 -8.144531 5.269531 -7.160156 5.4375 -6.203125 C 5.601562 -5.242188 5.875 -4.382812 6.25 -3.625 C 6.632812 -2.863281 7.125 -2.253906 7.71875 -1.796875 C 8.320312 -1.347656 9.050781 -1.125 9.90625 -1.125 C 10.769531 -1.125 11.5 -1.347656 12.09375 -1.796875 C 12.6875 -2.253906 13.171875 -2.863281 13.546875 -3.625 C 13.921875 -4.382812 14.195312 -5.242188 14.375 -6.203125 C 14.550781 -7.160156 14.640625 -8.144531 14.640625 -9.15625 C 14.640625 -10.164062 14.550781 -11.15625 14.375 -12.125 C 14.195312 -13.09375 13.921875 -13.953125 13.546875 -14.703125 C 13.171875 -15.460938 12.6875 -16.070312 12.09375 -16.53125 C 11.5 -16.988281 10.769531 -17.21875 9.90625 -17.21875 C 9.050781 -17.21875 8.320312 -16.988281 7.71875 -16.53125 C 7.125 -16.070312 6.632812 -15.460938 6.25 -14.703125 C 5.875 -13.953125 5.601562 -13.09375 5.4375 -12.125 C 5.269531 -11.15625 5.1875 -10.164062 5.1875 -9.15625 Z M 9.90625 -18.765625 C 11.007812 -18.765625 12.097656 -18.5625 13.171875 -18.15625 C 14.242188 -17.757812 15.207031 -17.160156 16.0625 -16.359375 C 16.925781 -15.566406 17.617188 -14.566406 18.140625 -13.359375 C 18.660156 -12.160156 18.921875 -10.757812 18.921875 -9.15625 C 18.921875 -7.550781 18.660156 -6.148438 18.140625 -4.953125 C 17.617188 -3.753906 16.929688 -2.757812 16.078125 -1.96875 C 15.234375 -1.175781 14.269531 -0.578125 13.1875 -0.171875 C 12.101562 0.222656 11.007812 0.421875 9.90625 0.421875 C 8.8125 0.421875 7.722656 0.222656 6.640625 -0.171875 C 5.554688 -0.578125 4.585938 -1.175781 3.734375 -1.96875 C 2.890625 -2.757812 2.203125 -3.753906 1.671875 -4.953125 C 1.148438 -6.148438 0.890625 -7.550781 0.890625 -9.15625 C 0.890625 -10.757812 1.148438 -12.160156 1.671875 -13.359375 C 2.203125 -14.566406 2.894531 -15.566406 3.75 -16.359375 C 4.613281 -17.160156 5.582031 -17.757812 6.65625 -18.15625 C 7.726562 -18.5625 8.8125 -18.765625 9.90625 -18.765625 Z M 9.90625 -18.765625 "/></g></g></g><g fill="#ffd404" fill-opacity="1"><g transform="translate(227.957143, 226.440103)"><g><path d="M 5.1875 -9.15625 C 5.1875 -8.144531 5.269531 -7.160156 5.4375 -6.203125 C 5.601562 -5.242188 5.875 -4.382812 6.25 -3.625 C 6.632812 -2.863281 7.125 -2.253906 7.71875 -1.796875 C 8.320312 -1.347656 9.050781 -1.125 9.90625 -1.125 C 10.769531 -1.125 11.5 -1.347656 12.09375 -1.796875 C 12.6875 -2.253906 13.171875 -2.863281 13.546875 -3.625 C 13.921875 -4.382812 14.195312 -5.242188 14.375 -6.203125 C 14.550781 -7.160156 14.640625 -8.144531 14.640625 -9.15625 C 14.640625 -10.164062 14.550781 -11.15625 14.375 -12.125 C 14.195312 -13.09375 13.921875 -13.953125 13.546875 -14.703125 C 13.171875 -15.460938 12.6875 -16.070312 12.09375 -16.53125 C 11.5 -16.988281 10.769531 -17.21875 9.90625 -17.21875 C 9.050781 -17.21875 8.320312 -16.988281 7.71875 -16.53125 C 7.125 -16.070312 6.632812 -15.460938 6.25 -14.703125 C 5.875 -13.953125 5.601562 -13.09375 5.4375 -12.125 C 5.269531 -11.15625 5.1875 -10.164062 5.1875 -9.15625 Z M 9.90625 -18.765625 C 11.007812 -18.765625 12.097656 -18.5625 13.171875 -18.15625 C 14.242188 -17.757812 15.207031 -17.160156 16.0625 -16.359375 C 16.925781 -15.566406 17.617188 -14.566406 18.140625 -13.359375 C 18.660156 -12.160156 18.921875 -10.757812 18.921875 -9.15625 C 18.921875 -7.550781 18.660156 -6.148438 18.140625 -4.953125 C 17.617188 -3.753906 16.929688 -2.757812 16.078125 -1.96875 C 15.234375 -1.175781 14.269531 -0.578125 13.1875 -0.171875 C 12.101562 0.222656 11.007812 0.421875 9.90625 0.421875 C 8.8125 0.421875 7.722656 0.222656 6.640625 -0.171875 C 5.554688 -0.578125 4.585938 -1.175781 3.734375 -1.96875 C 2.890625 -2.757812 2.203125 -3.753906 1.671875 -4.953125 C 1.148438 -6.148438 0.890625 -7.550781 0.890625 -9.15625 C 0.890625 -10.757812 1.148438 -12.160156 1.671875 -13.359375 C 2.203125 -14.566406 2.894531 -15.566406 3.75 -16.359375 C 4.613281 -17.160156 5.582031 -17.757812 6.65625 -18.15625 C 7.726562 -18.5625 8.8125 -18.765625 9.90625 -18.765625 Z M 9.90625 -18.765625 "/></g></g></g><g fill="#ffd404" fill-opacity="1"><g transform="translate(247.778435, 226.440103)"><g><path d="M 19.625 -1.40625 L 19.625 0 L 11.34375 0 L 11.34375 -1.40625 L 12.984375 -1.5625 L 9.21875 -9.078125 L 7.3125 -6.75 C 7.3125 -5.882812 7.3125 -5.023438 7.3125 -4.171875 C 7.3125 -3.328125 7.328125 -2.488281 7.359375 -1.65625 L 9.625 -1.40625 L 9.625 0 L 0.890625 0 L 0.890625 -1.40625 L 3.15625 -1.65625 C 3.195312 -2.8125 3.21875 -3.972656 3.21875 -5.140625 C 3.21875 -6.304688 3.21875 -7.488281 3.21875 -8.6875 L 3.21875 -9.65625 C 3.21875 -10.832031 3.21875 -12.003906 3.21875 -13.171875 C 3.21875 -14.335938 3.195312 -15.507812 3.15625 -16.6875 L 0.890625 -16.9375 L 0.890625 -18.34375 L 9.625 -18.34375 L 9.625 -16.9375 L 7.359375 -16.6875 C 7.328125 -15.53125 7.3125 -14.367188 7.3125 -13.203125 C 7.3125 -12.035156 7.3125 -10.851562 7.3125 -9.65625 L 7.3125 -8.9375 L 13.53125 -16.65625 L 12.015625 -16.9375 L 12.015625 -18.34375 L 18.34375 -18.34375 L 18.34375 -16.9375 L 15.40625 -16.578125 L 11.671875 -12.0625 L 17.421875 -1.65625 Z M 19.625 -1.40625 "/></g></g></g><g fill="#ffffff" fill-opacity="1"><g transform="translate(135.617002, 245.787553)"><g><path d="M 0.96875 0 L 0.96875 -8.015625 L 5.8125 -8.015625 L 5.8125 -7.15625 L 1.9375 -7.15625 L 1.9375 -4.453125 L 5.5625 -4.453125 L 5.5625 -3.59375 L 1.9375 -3.59375 L 1.9375 -0.859375 L 5.875 -0.859375 L 5.875 0 Z M 0.96875 0 "/></g></g></g><g fill="#ffffff" fill-opacity="1"><g transform="translate(143.395083, 245.787553)"><g><path d="M 1.296875 -8.015625 L 3.6875 -1.265625 L 3.78125 -1.265625 L 6.15625 -8.015625 L 7.171875 -8.015625 L 4.234375 0 L 3.234375 0 L 0.28125 -8.015625 Z M 1.296875 -8.015625 "/></g></g></g><g fill="#ffffff" fill-opacity="1"><g transform="translate(152.033747, 245.787553)"><g><path d="M 0.96875 0 L 0.96875 -8.015625 L 5.8125 -8.015625 L 5.8125 -7.15625 L 1.9375 -7.15625 L 1.9375 -4.453125 L 5.5625 -4.453125 L 5.5625 -3.59375 L 1.9375 -3.59375 L 1.9375 -0.859375 L 5.875 -0.859375 L 5.875 0 Z M 0.96875 0 "/></g></g></g><g fill="#ffffff" fill-opacity="1"><g transform="translate(159.811828, 245.787553)"><g><path d="M 7.328125 -8.015625 L 7.328125 0 L 6.390625 0 L 2.015625 -6.296875 L 1.9375 -6.296875 L 1.9375 0 L 0.96875 0 L 0.96875 -8.015625 L 1.90625 -8.015625 L 6.296875 -1.703125 L 6.375 -1.703125 L 6.375 -8.015625 Z M 7.328125 -8.015625 "/></g></g></g><g fill="#ffffff" fill-opacity="1"><g transform="translate(169.295432, 245.787553)"><g><path d="M 0.53125 -7.15625 L 0.53125 -8.015625 L 6.546875 -8.015625 L 6.546875 -7.15625 L 4.03125 -7.15625 L 4.03125 0 L 3.0625 0 L 3.0625 -7.15625 Z M 0.53125 -7.15625 "/></g></g></g><g fill="#ffffff" fill-opacity="1"><g transform="translate(177.558569, 245.787553)"><g/></g></g><g fill="#ffffff" fill-opacity="1"><g transform="translate(181.847391, 245.787553)"><g><path d="M 0.53125 -7.15625 L 0.53125 -8.015625 L 6.546875 -8.015625 L 6.546875 -7.15625 L 4.03125 -7.15625 L 4.03125 0 L 3.0625 0 L 3.0625 -7.15625 Z M 0.53125 -7.15625 "/></g></g></g><g fill="#ffffff" fill-opacity="1"><g transform="translate(190.110531, 245.787553)"><g><path d="M 0.96875 0 L 0.96875 -8.015625 L 3.6875 -8.015625 C 4.3125 -8.015625 4.820312 -7.910156 5.21875 -7.703125 C 5.625 -7.492188 5.921875 -7.203125 6.109375 -6.828125 C 6.304688 -6.453125 6.40625 -6.03125 6.40625 -5.5625 C 6.40625 -5.03125 6.28125 -4.566406 6.03125 -4.171875 C 5.789062 -3.773438 5.414062 -3.488281 4.90625 -3.3125 L 6.71875 0 L 5.59375 0 L 3.90625 -3.140625 C 3.832031 -3.140625 3.765625 -3.140625 3.703125 -3.140625 L 1.9375 -3.140625 L 1.9375 0 Z M 1.9375 -4.015625 L 3.671875 -4.015625 C 4.304688 -4.015625 4.757812 -4.148438 5.03125 -4.421875 C 5.3125 -4.703125 5.453125 -5.082031 5.453125 -5.5625 C 5.453125 -6.039062 5.3125 -6.425781 5.03125 -6.71875 C 4.757812 -7.007812 4.300781 -7.15625 3.65625 -7.15625 L 1.9375 -7.15625 Z M 1.9375 -4.015625 "/></g></g></g><g fill="#ffffff" fill-opacity="1"><g transform="translate(198.34238, 245.787553)"><g><path d="M 1.296875 0 L 0.28125 0 L 3.234375 -8.015625 L 4.234375 -8.015625 L 7.171875 0 L 6.15625 0 L 5.34375 -2.265625 L 2.109375 -2.265625 Z M 2.40625 -3.140625 L 5.046875 -3.140625 L 3.765625 -6.75 L 3.703125 -6.75 Z M 2.40625 -3.140625 "/></g></g></g><g fill="#ffffff" fill-opacity="1"><g transform="translate(206.981044, 245.787553)"><g><path d="M 7.421875 -5.515625 L 6.453125 -5.515625 C 6.378906 -5.890625 6.226562 -6.203125 6 -6.453125 C 5.78125 -6.703125 5.515625 -6.890625 5.203125 -7.015625 C 4.890625 -7.148438 4.554688 -7.21875 4.203125 -7.21875 C 3.710938 -7.21875 3.269531 -7.09375 2.875 -6.84375 C 2.488281 -6.601562 2.175781 -6.242188 1.9375 -5.765625 C 1.707031 -5.285156 1.59375 -4.703125 1.59375 -4.015625 C 1.59375 -3.316406 1.707031 -2.726562 1.9375 -2.25 C 2.175781 -1.769531 2.488281 -1.40625 2.875 -1.15625 C 3.269531 -0.914062 3.710938 -0.796875 4.203125 -0.796875 C 4.554688 -0.796875 4.890625 -0.859375 5.203125 -0.984375 C 5.515625 -1.117188 5.78125 -1.3125 6 -1.5625 C 6.226562 -1.820312 6.378906 -2.132812 6.453125 -2.5 L 7.421875 -2.5 C 7.328125 -1.957031 7.125 -1.488281 6.8125 -1.09375 C 6.507812 -0.707031 6.128906 -0.410156 5.671875 -0.203125 C 5.222656 0.00390625 4.734375 0.109375 4.203125 0.109375 C 3.515625 0.109375 2.90625 -0.0546875 2.375 -0.390625 C 1.84375 -0.722656 1.421875 -1.195312 1.109375 -1.8125 C 0.804688 -2.4375 0.65625 -3.171875 0.65625 -4.015625 C 0.65625 -4.859375 0.804688 -5.585938 1.109375 -6.203125 C 1.421875 -6.816406 1.84375 -7.289062 2.375 -7.625 C 2.90625 -7.957031 3.515625 -8.125 4.203125 -8.125 C 4.734375 -8.125 5.222656 -8.019531 5.671875 -7.8125 C 6.128906 -7.613281 6.507812 -7.316406 6.8125 -6.921875 C 7.125 -6.535156 7.328125 -6.066406 7.421875 -5.515625 Z M 7.421875 -5.515625 "/></g></g></g><g fill="#ffffff" fill-opacity="1"><g transform="translate(216.182997, 245.787553)"><g><path d="M 0.96875 0 L 0.96875 -8.015625 L 1.9375 -8.015625 L 1.9375 -4.046875 L 2.03125 -4.046875 L 5.640625 -8.015625 L 6.90625 -8.015625 L 3.546875 -4.40625 L 6.90625 0 L 5.734375 0 L 2.953125 -3.734375 L 1.9375 -2.59375 L 1.9375 0 Z M 0.96875 0 "/></g></g></g><g fill="#ffffff" fill-opacity="1"><g transform="translate(224.555666, 245.787553)"><g><path d="M 0.96875 0 L 0.96875 -8.015625 L 5.8125 -8.015625 L 5.8125 -7.15625 L 1.9375 -7.15625 L 1.9375 -4.453125 L 5.5625 -4.453125 L 5.5625 -3.59375 L 1.9375 -3.59375 L 1.9375 -0.859375 L 5.875 -0.859375 L 5.875 0 Z M 0.96875 0 "/></g></g></g><g fill="#ffffff" fill-opacity="1"><g transform="translate(232.333751, 245.787553)"><g><path d="M 0.96875 0 L 0.96875 -8.015625 L 3.6875 -8.015625 C 4.3125 -8.015625 4.820312 -7.910156 5.21875 -7.703125 C 5.625 -7.492188 5.921875 -7.203125 6.109375 -6.828125 C 6.304688 -6.453125 6.40625 -6.03125 6.40625 -5.5625 C 6.40625 -5.03125 6.28125 -4.566406 6.03125 -4.171875 C 5.789062 -3.773438 5.414062 -3.488281 4.90625 -3.3125 L 6.71875 0 L 5.59375 0 L 3.90625 -3.140625 C 3.832031 -3.140625 3.765625 -3.140625 3.703125 -3.140625 L 1.9375 -3.140625 L 1.9375 0 Z M 1.9375 -4.015625 L 3.671875 -4.015625 C 4.304688 -4.015625 4.757812 -4.148438 5.03125 -4.421875 C 5.3125 -4.703125 5.453125 -5.082031 5.453125 -5.5625 C 5.453125 -6.039062 5.3125 -6.425781 5.03125 -6.71875 C 4.757812 -7.007812 4.300781 -7.15625 3.65625 -7.15625 L 1.9375 -7.15625 Z M 1.9375 -4.015625 "/></g></g></g><g fill="#55298b" fill-opacity="1"><g transform="translate(157.593114, 170.090979)"><g><path d="M 10.53125 -8.203125 L 10.53125 -6.296875 C 10.53125 -5.816406 10.53125 -5.375 10.53125 -4.96875 C 10.53125 -4.570312 10.53125 -4.191406 10.53125 -3.828125 C 10.53125 -3.472656 10.535156 -3.125 10.546875 -2.78125 C 10.554688 -2.4375 10.5625 -2.070312 10.5625 -1.6875 L 13.125 -1.40625 L 13.125 0 L 3.84375 0 L 3.84375 -1.40625 L 6.40625 -1.6875 C 6.425781 -2.425781 6.4375 -3.128906 6.4375 -3.796875 C 6.4375 -4.472656 6.4375 -5.304688 6.4375 -6.296875 L 6.4375 -7.890625 L 1.875 -16.75 L 0.0625 -16.9375 L 0.0625 -18.34375 L 8.65625 -18.34375 L 8.65625 -16.9375 L 6.4375 -16.6875 L 9.6875 -9.46875 L 13.21875 -16.625 L 10.96875 -16.9375 L 10.96875 -18.34375 L 16.90625 -18.34375 L 16.90625 -16.9375 L 14.84375 -16.578125 Z M 10.53125 -8.203125 "/></g></g></g><g fill="#55298b" fill-opacity="1"><g transform="translate(198.773545, 170.090979)"><g><path d="M 8.203125 -1.546875 C 9.171875 -1.546875 9.972656 -1.628906 10.609375 -1.796875 C 11.242188 -1.960938 11.738281 -2.207031 12.09375 -2.53125 C 12.445312 -2.863281 12.691406 -3.253906 12.828125 -3.703125 C 12.972656 -4.160156 13.046875 -4.679688 13.046875 -5.265625 C 13.046875 -6.554688 12.695312 -7.484375 12 -8.046875 C 11.3125 -8.617188 10.117188 -8.90625 8.421875 -8.90625 L 7.3125 -8.90625 C 7.3125 -7.59375 7.3125 -6.328125 7.3125 -5.109375 C 7.3125 -3.898438 7.328125 -2.710938 7.359375 -1.546875 Z M 7.359375 -16.796875 C 7.328125 -15.734375 7.3125 -14.671875 7.3125 -13.609375 C 7.3125 -12.546875 7.3125 -11.472656 7.3125 -10.390625 L 8.34375 -10.390625 C 9.6875 -10.390625 10.664062 -10.664062 11.28125 -11.21875 C 11.894531 -11.769531 12.203125 -12.578125 12.203125 -13.640625 C 12.203125 -14.703125 11.925781 -15.492188 11.375 -16.015625 C 10.832031 -16.535156 9.953125 -16.796875 8.734375 -16.796875 Z M 9.6875 -18.34375 C 11.882812 -18.34375 13.5 -17.921875 14.53125 -17.078125 C 15.5625 -16.234375 16.078125 -15.125 16.078125 -13.75 C 16.078125 -13.300781 16.019531 -12.863281 15.90625 -12.4375 C 15.789062 -12.019531 15.597656 -11.632812 15.328125 -11.28125 C 15.054688 -10.925781 14.707031 -10.617188 14.28125 -10.359375 C 13.851562 -10.097656 13.332031 -9.882812 12.71875 -9.71875 C 13.53125 -9.5625 14.21875 -9.335938 14.78125 -9.046875 C 15.34375 -8.765625 15.796875 -8.425781 16.140625 -8.03125 C 16.484375 -7.644531 16.726562 -7.207031 16.875 -6.71875 C 17.03125 -6.226562 17.109375 -5.722656 17.109375 -5.203125 C 17.109375 -4.566406 16.988281 -3.941406 16.75 -3.328125 C 16.519531 -2.710938 16.082031 -2.15625 15.4375 -1.65625 C 14.789062 -1.164062 13.898438 -0.765625 12.765625 -0.453125 C 11.628906 -0.148438 10.15625 0 8.34375 0 L 0.890625 0 L 0.890625 -1.40625 L 3.15625 -1.65625 C 3.195312 -2.8125 3.21875 -3.972656 3.21875 -5.140625 C 3.21875 -6.304688 3.21875 -7.488281 3.21875 -8.6875 L 3.21875 -9.65625 C 3.21875 -10.832031 3.21875 -12.003906 3.21875 -13.171875 C 3.21875 -14.335938 3.195312 -15.507812 3.15625 -16.6875 L 0.890625 -16.9375 L 0.890625 -18.34375 Z M 9.6875 -18.34375 "/></g></g></g><path stroke-linecap="butt" transform="matrix(3.720406, -0.000000000000003814, 0.000000000000003845, 3.75, 90.133863, 242.037553)" fill="none" stroke-linejoin="miter" d="M -0.000282464 0.000402558 L 11.089318 0.000402558 " stroke="#ffbe00" stroke-width="1" stroke-opacity="1" stroke-miterlimit="4"/><path stroke-linecap="butt" transform="matrix(3.720406, -0.000000000000003814, 0.000000000000003845, 3.75, 243.283025, 242.037553)" fill="none" stroke-linejoin="miter" d="M -0.000477186 0.000402558 L 11.089123 0.000402558 " stroke="#ffbe00" stroke-width="1" stroke-opacity="1" stroke-miterlimit="4"/></svg>